<svg id="圖層_1" data-name="圖層 1" xmlns="http://www.w3.org/2000/svg" xmlns:xlink="http://www.w3.org/1999/xlink" viewBox="0 0 32 32"><defs><style>.cls-1{fill:url(#未命名漸層_31);}.cls-2{fill:url(#未命名漸層_31-2);}.cls-3{fill:url(#未命名漸層_31-3);}.cls-4{fill:url(#未命名漸層_31-4);}.cls-5{fill:url(#未命名漸層_31-5);}.cls-6{fill:none;}</style><linearGradient id="未命名漸層_31" x1="5.25" y1="6.75" x2="27.2" y2="25.87" gradientUnits="userSpaceOnUse"><stop offset="0" stop-color="#77d6ff"/><stop offset="0.09" stop-color="#6ecefa"/><stop offset="0.23" stop-color="#54baec"/><stop offset="0.41" stop-color="#2b99d6"/><stop offset="0.57" stop-color="#0076bf"/><stop offset="1" stop-color="#003dc5"/></linearGradient><linearGradient id="未命名漸層_31-2" x1="3.17" y1="9.14" x2="25.12" y2="28.26" xlink:href="#未命名漸層_31"/><linearGradient id="未命名漸層_31-3" x1="5.31" y1="6.69" x2="27.25" y2="25.81" xlink:href="#未命名漸層_31"/><linearGradient id="未命名漸層_31-4" x1="5.25" y1="6.75" x2="27.2" y2="25.87" xlink:href="#未命名漸層_31"/><linearGradient id="未命名漸層_31-5" x1="7.42" y1="4.27" x2="29.36" y2="23.39" xlink:href="#未命名漸層_31"/></defs><path class="cls-1" d="M18.73,16a2.69,2.69,0,0,0-.48-1.56,1,1,0,0,1-.19.68,1,1,0,1,1-1.64-1.18,1,1,0,0,1,.8-.42A2.8,2.8,0,1,0,18.73,16Z"/><path class="cls-2" d="M11.28,20.11H9.91a4.42,4.42,0,0,1-1.71-8.5.48.48,0,0,0,.3-.52L8.3,9.68l2.07,1.5a.48.48,0,0,0,.29.09h1.25a6.4,6.4,0,0,1,1.6-1H10.82L7.93,8.2a.48.48,0,0,0-.54,0,.5.5,0,0,0-.23.5l.31,2.19A5.41,5.41,0,0,0,9.91,21.1h6.22v-1Z"/><path class="cls-3" d="M13.25,19.12a4.11,4.11,0,0,1,2.68-7.23h3l-.3-.2a4.83,4.83,0,0,0-1-.47A4.71,4.71,0,0,0,17,11a5.24,5.24,0,0,0-1-.11h-.11l-.54,0a4.43,4.43,0,0,0-1,.2,3.64,3.64,0,0,0-.65.25,5,5,0,0,0-1,.59,4.63,4.63,0,0,0-.65.6c-.07.07-.13.15-.2.23a5.81,5.81,0,0,0-.4.57c-.09.15-.17.31-.25.47a5.09,5.09,0,0,0,.6,5.26Z"/><path class="cls-4" d="M20.54,13.86a5,5,0,0,0-.38-.68l-.22-.3H18.61a4.11,4.11,0,0,1-2.68,7.24h-3A5.08,5.08,0,0,0,21,16,5,5,0,0,0,20.54,13.86Z"/><path class="cls-5" d="M27.5,16.31a5.41,5.41,0,0,0-5.41-5.41H16.21a.5.5,0,0,0-.5.5.49.49,0,0,0,.5.49h5.88a4.42,4.42,0,0,1,1.71,8.5.48.48,0,0,0-.3.52l.2,1.41-2.07-1.5a.48.48,0,0,0-.29-.09H20a6.52,6.52,0,0,1-1.59,1h2.81l2.89,2.08a.43.43,0,0,0,.29.1.59.59,0,0,0,.25-.07.5.5,0,0,0,.23-.5l-.31-2.19A5.39,5.39,0,0,0,27.5,16.31Z"/><rect class="cls-6" width="32" height="32"/></svg>